<?xml version="1.0" standalone="no"?>
<!DOCTYPE svg PUBLIC "-//W3C//DTD SVG 20010904//EN"
 "http://www.w3.org/TR/2001/REC-SVG-20010904/DTD/svg10.dtd">
<svg version="1.0" xmlns="http://www.w3.org/2000/svg"
 width="512.000000pt" height="512.000000pt" viewBox="0 0 512.000000 512.000000"
 preserveAspectRatio="xMidYMid meet">

<g transform="translate(0.000000,512.000000) scale(0.100000,-0.100000)"
fill="#000000" stroke="none">
<path d="M777 4492 l-517 -518 2 -1474 3 -1475 22 -40 c29 -54 78 -99 138
-127 l50 -23 687 -3 688 -3 11 -22 c16 -32 60 -77 89 -92 14 -7 115 -43 226
-79 111 -36 208 -74 216 -84 9 -9 59 -98 111 -196 128 -242 170 -281 292 -279
51 1 91 14 260 82 109 45 206 81 215 81 9 0 106 -37 216 -82 171 -70 207 -81
259 -82 67 0 122 23 167 71 15 16 71 110 124 208 52 99 102 188 111 197 8 9
112 49 230 89 230 76 266 97 302 168 36 71 35 102 -14 331 -25 118 -43 225
-40 238 3 13 51 96 107 185 56 89 109 180 119 202 26 56 24 129 -5 191 -21 45
-45 68 -204 193 -99 78 -183 149 -186 158 -4 9 -20 111 -36 226 -32 229 -49
280 -104 322 -73 55 -91 58 -341 51 l-230 -7 -36 28 c-20 15 -101 85 -179 156
-78 70 -152 130 -166 133 l-24 6 -2 792 c-3 782 -3 792 -24 837 -26 55 -77
108 -130 135 -38 18 -72 19 -964 22 l-925 2 -518 -518z m2359 359 c67 -41 64
-7 64 -858 l-1 -768 -37 -18 c-20 -9 -84 -60 -142 -113 -58 -53 -132 -118
-164 -146 l-59 -50 -233 8 -233 7 -56 -28 c-31 -15 -65 -40 -77 -56 l-22 -29
-718 0 c-705 0 -718 0 -738 -20 -29 -29 -26 -74 6 -99 26 -21 34 -21 719 -21
l692 0 -24 -166 c-12 -92 -25 -175 -28 -185 -4 -10 -33 -39 -65 -64 l-58 -45
-611 0 c-598 0 -611 0 -631 -20 -29 -29 -26 -74 6 -99 26 -21 36 -21 541 -21
l514 0 -35 -30 c-55 -49 -79 -108 -74 -188 3 -61 9 -76 56 -152 l52 -85 -526
-5 c-506 -5 -526 -6 -540 -24 -19 -27 -18 -59 5 -87 l19 -24 568 -5 569 -5 23
-43 24 -42 -37 -178 c-21 -97 -41 -187 -46 -199 l-9 -23 -642 0 c-354 0 -661
5 -682 10 -22 5 -53 23 -70 40 l-31 30 -3 1410 -2 1410 422 0 c411 0 423 1
466 21 29 15 54 37 73 67 l29 46 0 433 0 433 858 0 c821 0 858 -1 888 -19z
m-1903 -828 c-13 -10 -105 -13 -377 -13 l-361 0 375 375 375 375 3 -362 c2
-332 1 -364 -15 -375z m2069 -932 c13 -5 88 -69 168 -141 80 -73 163 -144 184
-159 l40 -26 249 3 c273 3 283 1 305 -55 6 -15 20 -102 32 -193 24 -185 42
-268 66 -305 9 -14 95 -86 190 -161 96 -75 179 -144 184 -154 23 -43 10 -75
-105 -260 -111 -177 -135 -227 -135 -278 0 -13 20 -118 45 -234 25 -116 42
-221 39 -233 -11 -44 -49 -63 -255 -129 -166 -54 -213 -73 -246 -100 -29 -26
-65 -83 -143 -230 -89 -168 -108 -198 -137 -211 -40 -19 -30 -22 -263 72 -107
43 -206 77 -235 80 -45 5 -70 -3 -268 -82 -288 -115 -255 -126 -398 140 -73
137 -118 209 -142 231 -28 23 -85 46 -244 98 -170 55 -213 73 -235 97 -16 16
-28 37 -28 46 0 10 21 114 46 232 59 272 62 253 -91 500 -116 185 -128 217
-105 261 6 10 88 80 183 154 125 98 180 147 197 178 18 33 30 89 56 267 31
216 33 226 60 249 l28 24 235 -6 c232 -7 237 -7 283 16 26 13 117 86 203 163
180 161 187 166 237 146z"/>
<path d="M1745 4575 c-30 -29 -32 -68 -5 -95 19 -19 33 -20 530 -20 497 0 511
1 530 20 29 29 26 74 -6 99 -26 21 -36 21 -526 21 l-499 0 -24 -25z"/>
<path d="M1745 3975 c-30 -29 -32 -64 -5 -93 l21 -22 509 0 c497 0 511 1 530
20 29 29 26 74 -6 99 -26 21 -36 21 -526 21 l-499 0 -24 -25z"/>
<path d="M722 3377 c-28 -30 -28 -68 1 -95 l23 -22 1015 0 1016 0 21 23 c30
32 28 71 -4 96 -27 21 -30 21 -1039 21 l-1012 0 -21 -23z"/>
<path d="M3090 2521 c-343 -73 -612 -342 -687 -685 -20 -92 -20 -270 0 -362
36 -167 115 -311 237 -434 96 -98 170 -149 283 -198 434 -188 945 8 1146 439
57 121 72 187 78 335 7 155 -10 257 -62 377 -48 112 -90 178 -168 263 -208
225 -529 328 -827 265z m328 -137 c149 -31 265 -94 377 -208 92 -93 144 -177
182 -291 25 -73 27 -94 27 -230 0 -136 -2 -157 -27 -230 -39 -117 -91 -199
-188 -296 -74 -75 -99 -93 -190 -137 -164 -80 -312 -100 -477 -66 -156 32
-286 106 -400 229 -130 140 -194 303 -194 500 0 200 64 361 199 506 183 194
436 276 691 223z"/>
<path d="M3592 1928 c-26 -24 -136 -128 -245 -232 l-198 -189 -123 121 c-95
95 -129 122 -149 122 -37 0 -67 -33 -67 -72 0 -29 19 -51 153 -185 181 -180
180 -179 265 -100 112 103 477 451 490 466 31 38 -6 111 -56 111 -13 0 -44
-19 -70 -42z"/>
</g>
</svg>
