<?xml version="1.0" standalone="no"?>
<!DOCTYPE svg PUBLIC "-//W3C//DTD SVG 20010904//EN"
 "http://www.w3.org/TR/2001/REC-SVG-20010904/DTD/svg10.dtd">
<svg version="1.0" xmlns="http://www.w3.org/2000/svg"
 width="512.000000pt" height="512.000000pt" viewBox="0 0 512.000000 512.000000"
 preserveAspectRatio="xMidYMid meet">

<g transform="translate(0.000000,512.000000) scale(0.100000,-0.100000)"
fill="#000000" stroke="none">
<path d="M1092 4714 c-29 -14 -64 -41 -78 -60 -49 -64 -53 -90 -54 -370 l0
-261 -147 -5 c-123 -4 -155 -8 -188 -25 -51 -26 -91 -66 -118 -118 -21 -38
-22 -57 -25 -312 l-4 -271 -146 -4 c-128 -3 -152 -6 -188 -25 -55 -29 -109
-93 -123 -146 -9 -31 -11 -333 -9 -1142 l3 -1100 25 -45 c47 -83 138 -130 254
-130 42 0 43 -1 55 -42 30 -101 111 -190 220 -242 60 -28 75 -31 166 -31 88 0
107 3 159 28 110 51 185 133 222 241 13 38 20 46 40 46 16 0 24 -6 24 -17 0
-62 102 -199 184 -247 220 -129 509 -23 589 215 l15 44 490 3 490 2 16 -46
c99 -292 483 -369 686 -138 32 37 90 147 90 172 0 9 25 12 90 12 171 0 250 37
303 139 l27 55 0 267 0 267 153 4 c151 3 155 4 203 33 62 39 101 95 114 164 5
29 10 161 10 292 l0 238 153 3 c151 3 155 4 203 33 30 19 60 49 79 79 l30 49
0 576 0 576 -26 55 c-19 41 -107 143 -342 400 -174 190 -332 355 -352 368 -68
43 -131 52 -386 52 l-237 0 -3 113 c-4 106 -6 117 -34 163 -19 30 -49 60 -79
79 l-49 30 -1227 3 -1226 2 -52 -26z m2483 -159 l25 -24 0 -456 0 -455 -154 0
-153 0 -5 108 c-4 98 -7 114 -35 163 -37 67 -107 113 -185 122 -29 4 -479 7
-1000 7 l-948 0 0 255 0 256 25 24 24 25 1191 0 1191 0 24 -25z m688 -376 c32
-9 85 -61 345 -345 169 -185 315 -350 324 -367 15 -28 17 -66 18 -284 l0 -253
-70 0 c-87 0 -129 -17 -166 -66 -28 -36 -29 -43 -32 -158 -3 -110 -1 -125 20
-166 32 -62 88 -90 180 -90 l68 0 0 -40 c0 -30 -7 -47 -25 -65 -23 -24 -29
-25 -155 -25 l-130 0 0 168 c0 186 -10 264 -39 326 -11 22 -92 120 -180 216
l-159 175 274 5 c268 5 274 5 296 28 20 20 23 32 23 110 0 70 -4 93 -20 118
-29 46 -540 601 -572 621 -22 15 -55 19 -181 21 -168 4 -193 1 -222 -28 -19
-19 -20 -34 -20 -245 0 -124 -4 -225 -9 -225 -5 0 -23 3 -40 6 l-31 7 0 283 0
284 233 0 c132 0 248 -5 270 -11z m180 -514 c141 -153 253 -283 251 -287 -3
-4 -135 -8 -293 -8 l-288 0 -56 59 -57 60 0 231 0 231 94 -3 94 -3 255 -280z
m-1341 167 l23 -23 0 -457 0 -457 -155 0 -155 0 -5 115 c-6 128 -15 154 -76
213 -73 70 -18 67 -1111 67 l-983 0 0 239 c0 152 4 250 11 271 22 63 -42 60
1251 57 l1177 -2 23 -23z m701 -386 c22 -9 136 -126 333 -341 164 -180 308
-341 319 -358 19 -30 20 -49 20 -287 l0 -255 -87 -5 c-148 -9 -178 -48 -178
-235 0 -187 30 -226 178 -235 l87 -5 -2 -45 c-2 -34 -8 -50 -28 -67 -24 -21
-36 -23 -155 -23 l-129 0 -3 223 c-3 219 -3 223 -30 272 -14 28 -97 127 -182
220 -86 94 -156 173 -156 178 0 4 123 7 274 7 l275 0 20 26 c17 22 21 41 21
105 0 43 -4 89 -9 102 -12 32 -546 614 -585 638 -27 17 -52 19 -201 19 -118
-1 -175 -4 -186 -13 -35 -27 -39 -53 -39 -272 0 -194 -2 -216 -16 -211 -9 3
-24 6 -35 6 -18 0 -19 11 -19 285 l0 285 240 0 c181 0 249 -3 273 -14z m162
-502 c138 -151 252 -279 253 -284 2 -6 -104 -10 -291 -10 l-294 0 -56 59 -57
60 0 225 0 226 98 0 97 -1 250 -275z m-1340 161 l25 -24 0 -796 0 -795 -1240
0 -1240 0 0 791 c0 540 3 797 11 810 6 11 20 24 32 29 12 5 549 9 1205 9
l1183 1 24 -25z m2325 -415 l0 -80 -55 0 -55 0 0 80 0 80 55 0 55 0 0 -80z
m-1611 26 c33 -17 618 -654 643 -700 15 -27 17 -65 18 -283 l0 -253 -68 0
c-84 0 -147 -28 -177 -80 -17 -30 -20 -53 -20 -160 0 -107 3 -130 20 -159 36
-60 66 -76 161 -80 l84 -3 0 -42 c0 -33 -6 -48 -26 -67 -23 -21 -36 -24 -125
-27 -89 -4 -100 -2 -105 15 -44 131 -123 224 -232 276 -61 29 -75 32 -162 31
-111 0 -171 -20 -251 -81 -60 -45 -120 -131 -139 -197 l-13 -47 -66 3 -66 3
-3 933 -2 932 250 0 c199 0 257 -3 279 -14z m1141 -751 l0 -75 -55 0 -55 0 0
75 0 75 55 0 55 0 0 -75z m-1830 -870 l0 -235 -340 0 -340 0 -6 28 c-14 57
-69 145 -125 197 -81 74 -146 99 -269 99 -86 1 -101 -2 -160 -30 -110 -52
-183 -131 -220 -237 -25 -72 -52 -76 -70 -11 -20 69 -84 158 -147 204 -79 56
-141 75 -248 75 -80 0 -97 -4 -157 -32 -109 -52 -188 -145 -232 -277 -5 -16
-14 -18 -63 -14 -46 4 -61 10 -80 32 -22 26 -23 32 -23 232 l0 204 1240 0
1240 0 0 -235z m1350 145 l0 -80 -55 0 -55 0 0 73 c0 41 3 77 7 80 3 4 28 7
55 7 l48 0 0 -80z m-3145 -244 c175 -103 160 -351 -25 -435 -92 -42 -189 -22
-267 54 -123 120 -88 316 71 392 68 32 154 28 221 -11z m840 0 c168 -99 160
-339 -15 -429 -49 -25 -63 -28 -123 -24 -86 6 -149 42 -191 111 -38 61 -47
154 -21 221 19 51 96 126 147 143 55 19 151 8 203 -22z m1751 10 c114 -53 168
-174 133 -301 -14 -53 -99 -136 -155 -153 -119 -35 -239 14 -297 123 -33 62
-31 165 6 227 67 114 198 158 313 104z"/>
<path d="M1358 2362 c-627 -626 -608 -603 -553 -657 16 -17 35 -25 57 -25 31
0 80 47 606 573 592 593 587 587 566 642 -7 18 -55 45 -81 45 -10 0 -262 -244
-595 -578z"/>
<path d="M1098 2622 c-289 -288 -308 -310 -308 -343 0 -46 33 -79 80 -79 32 0
59 24 342 308 279 278 308 310 308 340 0 44 -38 82 -82 82 -30 0 -62 -29 -340
-308z"/>
<path d="M1925 2410 c-11 -4 -156 -145 -322 -312 -328 -329 -328 -328 -280
-384 17 -19 33 -27 56 -27 29 0 64 31 342 309 274 274 309 312 309 340 0 56
-56 96 -105 74z"/>
<path d="M2912 2627 c-22 -23 -22 -26 -22 -421 l0 -397 25 -24 24 -25 456 0
457 0 29 29 c27 27 29 35 29 101 0 39 -6 85 -14 103 -15 36 -564 640 -591 650
-9 4 -96 7 -194 7 -173 0 -178 -1 -199 -23z m583 -413 c138 -152 252 -279 253
-285 2 -5 -133 -9 -347 -9 l-351 0 0 285 0 285 98 -1 97 0 250 -275z"/>
<path d="M2926 1649 c-37 -29 -37 -89 0 -118 22 -17 41 -21 103 -21 51 0 84 5
98 15 44 31 37 111 -13 134 -14 6 -56 11 -93 11 -54 0 -74 -4 -95 -21z"/>
</g>
</svg>
