<?xml version="1.0" standalone="no"?>
<!DOCTYPE svg PUBLIC "-//W3C//DTD SVG 20010904//EN"
 "http://www.w3.org/TR/2001/REC-SVG-20010904/DTD/svg10.dtd">
<svg version="1.0" xmlns="http://www.w3.org/2000/svg"
 width="512.000000pt" height="512.000000pt" viewBox="0 0 512.000000 512.000000"
 preserveAspectRatio="xMidYMid meet">

<g transform="translate(0.000000,512.000000) scale(0.100000,-0.100000)"
fill="#000000" stroke="none">
<path d="M1475 4685 c-1012 -318 -1035 -326 -1035 -370 0 -40 38 -56 405 -170
204 -64 427 -134 498 -156 l127 -40 0 -587 c0 -323 5 -635 10 -694 27 -285
165 -537 388 -709 l33 -25 -643 -329 c-354 -180 -667 -344 -696 -363 -65 -42
-115 -99 -154 -176 -52 -103 -58 -155 -58 -546 0 -398 0 -400 64 -400 61 0 61
-6 66 429 l5 396 28 57 c50 102 88 129 408 293 161 83 298 151 305 153 7 2
288 -285 625 -637 337 -353 621 -643 631 -647 10 -3 26 -3 36 0 10 3 293 294
631 647 337 352 618 639 626 637 7 -2 144 -70 305 -153 319 -164 357 -191 407
-293 l28 -57 5 -396 c5 -435 5 -429 66 -429 64 0 64 2 64 400 0 394 -6 442
-61 551 -66 131 -83 143 -689 453 -300 154 -602 309 -671 345 l-126 66 65 55
c168 140 284 333 339 565 14 60 17 167 22 730 l6 659 455 143 c250 78 458 142
463 143 4 0 7 -85 7 -190 l0 -189 -43 -19 c-53 -23 -104 -74 -128 -127 -16
-35 -19 -68 -19 -251 0 -192 2 -212 18 -227 16 -15 47 -17 228 -17 166 0 214
3 230 14 18 14 19 28 19 228 0 175 -3 219 -16 249 -25 53 -74 104 -124 128
l-45 21 0 239 c0 214 -2 241 -18 261 -14 17 -236 90 -1022 336 -552 173 -1017
314 -1034 313 -17 0 -481 -142 -1031 -314z m1787 -41 c1046 -327 1040 -325
1035 -330 -2 -2 -405 -130 -895 -283 l-891 -278 -893 279 c-490 153 -894 280
-896 283 -2 2 36 16 84 31 73 23 1695 531 1701 533 1 1 341 -105 755 -235z
m-1204 -879 c238 -74 442 -135 452 -135 10 0 207 59 437 130 230 72 426 133
436 136 16 5 17 -11 17 -235 l0 -241 -900 0 -900 0 0 245 c0 191 3 243 13 240
6 -2 207 -65 445 -140z m2549 -79 l33 -36 0 -160 0 -160 -125 0 -125 0 0 150
c0 117 4 158 15 181 41 78 142 90 202 25z m-1807 -394 c0 -20 -61 -101 -106
-141 -101 -90 -317 -169 -565 -205 -115 -17 -357 -36 -461 -36 l-68 0 0 195 0
195 600 0 c330 0 600 -4 600 -8z m600 -132 l0 -140 -33 0 c-46 0 -143 26 -202
55 -87 42 -178 135 -199 203 l-7 22 220 0 221 0 0 -140z m-411 -112 c89 -80
205 -128 375 -153 l38 -6 -5 -152 c-6 -179 -19 -233 -87 -372 -124 -251 -357
-425 -634 -474 -77 -14 -275 -14 -352 0 -397 70 -701 405 -721 797 l-6 102
109 0 c213 0 477 31 659 77 210 52 346 121 450 228 l70 71 26 -35 c14 -20 49
-57 78 -83z m-906 -1212 c30 -14 80 -32 111 -41 l56 -16 0 -63 c0 -134 29
-221 102 -308 l40 -47 -107 -351 c-60 -193 -112 -349 -117 -348 -5 2 -191 194
-414 427 l-406 425 49 24 c26 14 179 92 338 173 160 82 291 149 291 149 1 0
26 -11 57 -24z m1228 -147 c184 -95 335 -173 337 -174 4 -3 -805 -849 -816
-853 -5 -1 -57 155 -116 348 l-108 350 40 48 c73 88 102 175 102 308 l0 63 68
21 c37 11 85 29 107 39 22 11 43 20 46 20 4 1 157 -76 340 -170z m-691 -11 c0
-99 -18 -144 -79 -203 l-41 -39 -41 39 c-61 59 -79 104 -79 203 l0 82 120 0
120 0 0 -82z m-3 -765 l113 -367 -113 -117 c-61 -64 -114 -116 -117 -115 -3 1
-56 53 -117 116 l-113 116 113 367 c61 202 114 367 117 367 3 0 56 -165 117
-367z"/>
</g>
</svg>
