<?xml version="1.0" standalone="no"?>
<!DOCTYPE svg PUBLIC "-//W3C//DTD SVG 20010904//EN"
 "http://www.w3.org/TR/2001/REC-SVG-20010904/DTD/svg10.dtd">
<svg version="1.0" xmlns="http://www.w3.org/2000/svg"
 width="512.000000pt" height="512.000000pt" viewBox="0 0 512.000000 512.000000"
 preserveAspectRatio="xMidYMid meet">

<g transform="translate(0.000000,512.000000) scale(0.100000,-0.100000)"
fill="#000000" stroke="none">
<path d="M2335 4850 c-741 -82 -1373 -485 -1752 -1117 -54 -89 -64 -131 -39
-153 34 -27 59 -8 123 99 337 556 852 920 1473 1040 946 183 1892 -266 2360
-1122 23 -43 41 -80 38 -82 -2 -2 -54 4 -116 13 -124 18 -145 14 -150 -31 -2
-18 4 -30 20 -40 28 -18 318 -62 351 -53 21 5 35 31 91 168 36 90 66 168 66
174 0 22 -39 47 -64 40 -19 -5 -31 -24 -60 -92 -20 -47 -36 -90 -36 -94 0 -5
-4 -11 -9 -14 -5 -4 -27 27 -49 68 -137 253 -348 509 -567 688 -312 253 -712
430 -1115 493 -123 19 -450 28 -565 15z"/>
<path d="M1266 3545 c-22 -8 -52 -27 -68 -42 -37 -38 -556 -937 -564 -978 -8
-43 11 -107 41 -144 22 -26 226 -151 342 -210 75 -38 160 -23 217 37 l29 31
117 -147 117 -146 -24 -46 c-32 -59 -29 -141 7 -193 29 -42 91 -84 137 -93 30
-6 33 -9 33 -43 1 -110 127 -218 230 -198 27 6 31 3 44 -26 17 -42 65 -89 112
-112 36 -17 126 -18 165 -1 11 5 23 -4 42 -32 30 -46 113 -92 164 -92 68 0
140 46 184 117 l20 32 85 -50 c157 -93 199 -104 272 -73 71 29 131 110 132
177 0 23 4 27 28 27 38 1 102 32 134 66 30 32 58 92 58 124 0 16 7 20 38 20
81 1 166 67 191 149 15 52 14 83 -5 130 l-16 40 38 33 c68 60 92 155 59 235
-18 42 -22 37 78 89 l68 35 48 -50 c83 -85 146 -83 307 9 225 129 251 147 274
196 43 89 43 89 -256 609 -288 500 -299 516 -383 530 -53 9 -94 -8 -281 -116
-189 -109 -213 -134 -215 -227 l-2 -57 -54 -14 c-35 -9 -116 -14 -234 -15
-152 0 -198 3 -295 23 -86 18 -135 22 -200 19 -101 -6 -148 -24 -244 -97 l-69
-53 -189 68 -188 67 0 46 c0 50 -26 116 -56 143 -33 29 -333 197 -372 208 -46
12 -48 12 -96 -5z m239 -182 c161 -91 185 -111 185 -152 0 -27 -492 -894 -533
-938 -35 -39 -68 -30 -238 68 -87 50 -164 98 -171 106 -31 38 -15 72 237 508
276 478 279 483 309 495 31 13 47 6 211 -87z m2260 85 c33 -15 555 -915 555
-957 0 -38 -24 -57 -194 -155 -155 -89 -189 -99 -224 -68 -25 21 -531 898
-538 932 -4 16 2 34 15 51 22 29 326 209 353 209 4 0 19 -5 33 -12z m-1085
-400 c145 -30 446 -31 561 -1 l75 19 180 -310 c98 -170 191 -332 207 -358 l27
-48 -107 -53 -108 -54 -325 189 c-557 323 -516 303 -619 295 -63 -4 -211 -58
-249 -90 -8 -6 -34 -52 -59 -102 -62 -127 -81 -152 -137 -180 -59 -29 -101
-32 -115 -7 -5 10 -5 88 1 202 11 214 -9 175 175 345 152 141 214 175 317 175
39 0 118 -10 176 -22z m-773 -43 c86 -31 160 -58 165 -61 5 -4 -26 -43 -70
-88 l-80 -81 -7 -149 c-13 -256 -12 -299 8 -330 32 -48 75 -68 137 -63 126 11
200 72 276 226 l49 99 70 33 c78 37 167 49 206 29 133 -68 831 -479 852 -501
19 -21 27 -40 27 -64 0 -43 -42 -93 -85 -101 -25 -4 -57 10 -189 86 -118 68
-164 90 -182 86 -25 -7 -39 -36 -30 -64 3 -10 89 -66 191 -126 102 -59 192
-117 200 -129 45 -65 -28 -171 -104 -152 -14 4 -110 56 -214 117 -146 85 -194
108 -213 104 -24 -6 -41 -43 -31 -68 2 -7 67 -49 143 -93 167 -96 194 -120
194 -170 0 -29 -8 -45 -35 -72 -49 -49 -71 -44 -261 68 -136 80 -160 91 -183
83 -19 -7 -27 -17 -29 -41 -3 -31 0 -34 128 -109 72 -42 137 -86 145 -97 26
-38 19 -85 -19 -123 -46 -46 -72 -44 -175 15 -125 72 -122 69 -111 116 20 88
-39 190 -129 222 l-48 17 14 47 c16 55 7 105 -29 160 -25 37 -116 89 -155 89
-19 0 -23 5 -23 30 0 71 -75 160 -152 180 -46 13 -116 6 -143 -14 -16 -11 -24
-6 -69 40 -57 58 -112 80 -177 69 -56 -10 -97 -42 -158 -123 l-53 -72 -119
149 c-65 82 -119 152 -119 156 0 16 413 725 422 725 6 0 80 -25 165 -55z m-74
-886 c73 -38 87 -96 41 -165 -99 -146 -158 -226 -174 -234 -38 -20 -80 -12
-116 24 -49 49 -46 78 23 178 142 208 165 228 226 197z m328 -102 c42 -28 57
-67 42 -107 -6 -16 -72 -116 -147 -223 -158 -224 -180 -242 -252 -198 -35 21
-59 70 -51 103 9 35 283 420 309 435 34 18 61 16 99 -10z m210 -213 c17 -8 37
-30 45 -50 12 -29 12 -39 1 -66 -19 -44 -211 -317 -243 -345 -39 -35 -88 -31
-130 11 -55 55 -50 70 86 264 66 94 130 178 142 187 29 19 61 19 99 -1z m166
-301 c34 -22 53 -68 43 -104 -10 -35 -94 -154 -123 -174 -12 -8 -30 -15 -40
-15 -37 0 -85 32 -102 65 -14 30 -14 38 -1 69 16 38 91 144 115 163 23 18 78
16 108 -4z"/>
<path d="M463 1712 c-13 -8 -143 -315 -143 -337 0 -23 38 -48 64 -41 19 5 31
24 60 92 20 47 36 90 36 94 0 5 4 11 9 14 5 4 27 -27 49 -68 342 -634 964
-1069 1692 -1182 141 -22 489 -25 625 -6 254 37 488 108 710 217 412 201 738
501 971 890 30 50 54 101 54 113 0 26 -40 55 -63 46 -9 -3 -44 -53 -79 -110
-338 -568 -894 -941 -1563 -1050 -154 -26 -486 -26 -644 -1 -699 110 -1282
520 -1621 1140 -23 43 -41 80 -38 82 2 2 54 -4 116 -13 124 -18 145 -14 150
31 5 39 -27 52 -188 76 -158 23 -179 25 -197 13z"/>
</g>
</svg>
